<mxfile host="app.diagrams.net" modified="2021-06-30T16:23:31.210Z" agent="5.0 (Macintosh; Intel Mac OS X 10_15_6) AppleWebKit/605.1.15 (KHTML, like Gecko) Version/14.0.3 Safari/605.1.15" etag="TlOOgcrdk_ePjgBzmTEn" version="14.6.11" type="github">
  <diagram id="psU2UikrhqL8jNKmF6cu" name="第 1 页">
    <mxGraphModel dx="1773" dy="558" grid="1" gridSize="10" guides="1" tooltips="1" connect="1" arrows="1" fold="1" page="1" pageScale="1" pageWidth="827" pageHeight="1169" math="0" shadow="0">
      <root>
        <mxCell id="0" />
        <mxCell id="1" parent="0" />
        <mxCell id="vtzBvM_wjRW30sDzGLUb-1" value="" style="rounded=0;whiteSpace=wrap;html=1;fillColor=#cce5ff;strokeColor=#36393d;" vertex="1" parent="1">
          <mxGeometry x="80" y="120" width="120" height="440" as="geometry" />
        </mxCell>
        <mxCell id="vtzBvM_wjRW30sDzGLUb-2" value="" style="rounded=0;whiteSpace=wrap;html=1;fillColor=#ffcc99;strokeColor=#36393d;" vertex="1" parent="1">
          <mxGeometry x="480" y="120" width="120" height="440" as="geometry" />
        </mxCell>
        <mxCell id="vtzBvM_wjRW30sDzGLUb-3" value="" style="shape=flexArrow;endArrow=classic;html=1;fillColor=#fad7ac;strokeColor=#b46504;" edge="1" parent="1">
          <mxGeometry width="50" height="50" relative="1" as="geometry">
            <mxPoint x="450" y="170" as="sourcePoint" />
            <mxPoint x="210" y="170" as="targetPoint" />
          </mxGeometry>
        </mxCell>
        <mxCell id="vtzBvM_wjRW30sDzGLUb-4" value="1.2 psync ？ -1" style="text;html=1;align=center;verticalAlign=middle;resizable=0;points=[];autosize=1;fontSize=16;" vertex="1" parent="1">
          <mxGeometry x="270" y="140" width="120" height="20" as="geometry" />
        </mxCell>
        <mxCell id="vtzBvM_wjRW30sDzGLUb-5" value="第一阶段：&lt;br&gt;建立链接、协商同步" style="text;html=1;align=center;verticalAlign=middle;resizable=0;points=[];autosize=1;fontSize=16;fillColor=#cdeb8b;strokeColor=#36393d;" vertex="1" parent="1">
          <mxGeometry x="255" y="90" width="160" height="40" as="geometry" />
        </mxCell>
        <mxCell id="vtzBvM_wjRW30sDzGLUb-6" value="" style="shape=flexArrow;endArrow=classic;html=1;fontSize=16;fillColor=#b1ddf0;strokeColor=#10739e;" edge="1" parent="1">
          <mxGeometry width="50" height="50" relative="1" as="geometry">
            <mxPoint x="212.5" y="249" as="sourcePoint" />
            <mxPoint x="447.5" y="249" as="targetPoint" />
          </mxGeometry>
        </mxCell>
        <mxCell id="vtzBvM_wjRW30sDzGLUb-7" value="1.3 FULLRESYNC {runID} {offset}" style="text;html=1;align=center;verticalAlign=middle;resizable=0;points=[];autosize=1;fontSize=16;" vertex="1" parent="1">
          <mxGeometry x="210" y="210" width="260" height="20" as="geometry" />
        </mxCell>
        <mxCell id="vtzBvM_wjRW30sDzGLUb-8" value="第二阶段:&lt;br&gt;主服务器同步数据给从服务器" style="text;html=1;align=center;verticalAlign=middle;resizable=0;points=[];autosize=1;strokeColor=#36393d;fontSize=16;fillColor=#cdeb8b;" vertex="1" parent="1">
          <mxGeometry x="225" y="290" width="220" height="40" as="geometry" />
        </mxCell>
        <mxCell id="vtzBvM_wjRW30sDzGLUb-9" value="" style="shape=flexArrow;endArrow=classic;html=1;fontSize=16;fillColor=#b1ddf0;strokeColor=#10739e;" edge="1" parent="1">
          <mxGeometry width="50" height="50" relative="1" as="geometry">
            <mxPoint x="210" y="370" as="sourcePoint" />
            <mxPoint x="455" y="370" as="targetPoint" />
          </mxGeometry>
        </mxCell>
        <mxCell id="vtzBvM_wjRW30sDzGLUb-10" value="2.3 传输 RDB 文件" style="text;html=1;align=center;verticalAlign=middle;resizable=0;points=[];autosize=1;fontSize=16;" vertex="1" parent="1">
          <mxGeometry x="255" y="340" width="150" height="20" as="geometry" />
        </mxCell>
        <mxCell id="vtzBvM_wjRW30sDzGLUb-11" value="第三阶段:&lt;br&gt;主服务器发送新写命令给从服务器" style="text;html=1;align=center;verticalAlign=middle;resizable=0;points=[];autosize=1;strokeColor=#36393d;fontSize=16;fillColor=#cdeb8b;" vertex="1" parent="1">
          <mxGeometry x="210" y="430" width="260" height="40" as="geometry" />
        </mxCell>
        <mxCell id="vtzBvM_wjRW30sDzGLUb-12" value="" style="shape=flexArrow;endArrow=classic;html=1;fontSize=16;fillColor=#b1ddf0;strokeColor=#10739e;" edge="1" parent="1">
          <mxGeometry width="50" height="50" relative="1" as="geometry">
            <mxPoint x="210" y="520" as="sourcePoint" />
            <mxPoint x="460" y="520" as="targetPoint" />
          </mxGeometry>
        </mxCell>
        <mxCell id="vtzBvM_wjRW30sDzGLUb-13" value="3.1 发送新的写操作命令" style="text;html=1;align=center;verticalAlign=middle;resizable=0;points=[];autosize=1;fontSize=16;" vertex="1" parent="1">
          <mxGeometry x="230" y="490" width="190" height="20" as="geometry" />
        </mxCell>
        <mxCell id="vtzBvM_wjRW30sDzGLUb-16" value="" style="endArrow=none;dashed=1;html=1;dashPattern=1 3;strokeWidth=2;fontSize=16;" edge="1" parent="1">
          <mxGeometry width="50" height="50" relative="1" as="geometry">
            <mxPoint x="-70" y="420" as="sourcePoint" />
            <mxPoint x="770" y="420" as="targetPoint" />
          </mxGeometry>
        </mxCell>
        <mxCell id="vtzBvM_wjRW30sDzGLUb-17" value="主服务器&lt;br&gt;(192.168.1.100)" style="text;html=1;align=center;verticalAlign=middle;resizable=0;points=[];autosize=1;strokeColor=none;fontSize=16;" vertex="1" parent="1">
          <mxGeometry x="75" y="60" width="130" height="40" as="geometry" />
        </mxCell>
        <mxCell id="vtzBvM_wjRW30sDzGLUb-18" value="从服务器&lt;br&gt;(192.168.1.200)" style="text;html=1;align=center;verticalAlign=middle;resizable=0;points=[];autosize=1;strokeColor=none;fontSize=16;" vertex="1" parent="1">
          <mxGeometry x="475" y="60" width="130" height="40" as="geometry" />
        </mxCell>
        <mxCell id="vtzBvM_wjRW30sDzGLUb-19" value="缓存新的写操作命令的缓冲区" style="rounded=1;whiteSpace=wrap;html=1;fontSize=16;fillColor=#ffff88;strokeColor=#36393d;" vertex="1" parent="1">
          <mxGeometry x="95" y="440" width="85" height="95" as="geometry" />
        </mxCell>
        <mxCell id="vtzBvM_wjRW30sDzGLUb-20" value="2.1 执行 bgsave 命令，&lt;br&gt;以生成 RDB 文件" style="text;html=1;align=center;verticalAlign=middle;resizable=0;points=[];autosize=1;strokeColor=none;fontSize=16;" vertex="1" parent="1">
          <mxGeometry x="-90" y="320" width="180" height="40" as="geometry" />
        </mxCell>
        <mxCell id="vtzBvM_wjRW30sDzGLUb-21" value="1.4 保存主服务器的信息" style="text;html=1;align=center;verticalAlign=middle;resizable=0;points=[];autosize=1;strokeColor=none;fontSize=16;" vertex="1" parent="1">
          <mxGeometry x="600" y="230" width="190" height="20" as="geometry" />
        </mxCell>
        <mxCell id="vtzBvM_wjRW30sDzGLUb-22" value="2.4 清空当前的数据，&lt;br&gt;然后载入 RDB" style="text;html=1;align=center;verticalAlign=middle;resizable=0;points=[];autosize=1;strokeColor=none;fontSize=16;" vertex="1" parent="1">
          <mxGeometry x="605" y="330" width="170" height="40" as="geometry" />
        </mxCell>
        <mxCell id="vtzBvM_wjRW30sDzGLUb-23" value="3.2 接收写操作命令，&lt;br&gt;并执行命令" style="text;html=1;align=center;verticalAlign=middle;resizable=0;points=[];autosize=1;strokeColor=none;fontSize=16;" vertex="1" parent="1">
          <mxGeometry x="605" y="490" width="170" height="40" as="geometry" />
        </mxCell>
        <mxCell id="vtzBvM_wjRW30sDzGLUb-24" value="1.1 执行&amp;nbsp;replicaof 192.168.1.100 6379" style="text;html=1;align=center;verticalAlign=middle;resizable=0;points=[];autosize=1;strokeColor=none;fontSize=16;" vertex="1" parent="1">
          <mxGeometry x="595" y="140" width="290" height="20" as="geometry" />
        </mxCell>
        <mxCell id="vtzBvM_wjRW30sDzGLUb-25" value="" style="endArrow=none;dashed=1;html=1;dashPattern=1 3;strokeWidth=2;fontSize=16;" edge="1" parent="1">
          <mxGeometry width="50" height="50" relative="1" as="geometry">
            <mxPoint x="-65" y="270" as="sourcePoint" />
            <mxPoint x="775" y="270" as="targetPoint" />
          </mxGeometry>
        </mxCell>
      </root>
    </mxGraphModel>
  </diagram>
</mxfile>
